<?xml version="1.0" encoding="UTF-8"?>
<svg id="Layer_1" data-name="Layer 1" xmlns="http://www.w3.org/2000/svg" viewBox="0 0 32.68 32.68">
  <defs>
    <style>
      .cls-1 {
        fill: #e91e63;
      }
    </style>
  </defs>
  <path class="cls-1" d="M23.21,0h-13.73C4.24,0,0,4.24,0,9.48v13.73c0,5.23,4.24,9.48,9.48,9.48h13.73c5.23,0,9.48-4.24,9.48-9.48v-13.73c0-5.23-4.24-9.48-9.48-9.48ZM18.69,23.77c0,2.1-1.7,3.8-3.8,3.8h-.89v-4.69h4.69v.89ZM24.38,21.31H8.31v-12.3c0-2.15,1.75-3.9,3.9-3.9h.92v11.44h7.41c2.13,0,3.85,1.72,3.85,3.85v.9ZM24.38,11.2c0,2.1-1.7,3.8-3.8,3.8h-6.58v-.89c0-2.1,1.7-3.8,3.8-3.8h6.58v.89Z"/>
</svg>