<?xml version="1.0" encoding="UTF-8"?>
<svg id="Layer_1" data-name="Layer 1" xmlns="http://www.w3.org/2000/svg" viewBox="0 0 160.48 29.48">
  <defs>
    <style>
      .cls-1 {
        fill: #e91e63;
      }

      .cls-2 {
        fill: #e91e63;
      }

      .cls-3 {
        fill: #333;
      }
    </style>
  </defs>
  <g>
    <path class="cls-1" d="M38.85,6.04v2.94h-6.13v3.17h4.59v2.85h-4.59v6.09h-3.67V6.04h9.79Z"/>
    <path class="cls-1" d="M40.75,11.85c.46-.93,1.1-1.64,1.9-2.14.8-.5,1.69-.75,2.68-.75.84,0,1.58.17,2.22.51.64.34,1.12.79,1.47,1.35v-1.69h3.66v11.96h-3.66v-1.69c-.36.56-.85,1.01-1.49,1.35s-1.38.51-2.22.51c-.97,0-1.86-.25-2.66-.76-.8-.51-1.43-1.23-1.9-2.16s-.7-2.02-.7-3.25.23-2.31.7-3.24ZM48.25,12.94c-.51-.53-1.13-.79-1.85-.79s-1.35.26-1.85.78c-.51.52-.76,1.24-.76,2.15s.25,1.64.76,2.17,1.13.8,1.85.8,1.35-.26,1.85-.79c.51-.53.76-1.25.76-2.16s-.25-1.64-.76-2.16Z"/>
    <path class="cls-1" d="M62.64,21.08l-3.64-5.02v5.02h-3.67V5.22h3.67v8.77l3.62-4.86h4.52l-4.97,6,5.01,5.96h-4.54Z"/>
    <path class="cls-1" d="M75.24,17.98v3.11h-1.86c-1.33,0-2.36-.33-3.11-.98-.74-.65-1.11-1.71-1.11-3.18v-4.76h-1.46v-3.04h1.46v-2.91h3.66v2.91h2.4v3.04h-2.4v4.8c0,.36.09.61.26.77.17.16.46.24.86.24h1.31Z"/>
    <path class="cls-1" d="M89.09,9.12v11.96h-3.66v-1.63c-.37.53-.88.95-1.51,1.28-.64.32-1.34.48-2.11.48-.91,0-1.72-.2-2.42-.61s-1.24-1-1.63-1.77c-.39-.77-.58-1.68-.58-2.72v-6.99h3.64v6.49c0,.8.21,1.42.62,1.86.41.44.97.66,1.67.66s1.28-.22,1.69-.66c.41-.44.62-1.06.62-1.86v-6.49h3.66Z"/>
    <path class="cls-1" d="M97,9.56c.64-.38,1.36-.57,2.14-.57v3.88h-1.01c-.91,0-1.6.2-2.06.59-.46.39-.69,1.08-.69,2.07v5.55h-3.67v-11.96h3.67v1.99c.43-.66.96-1.18,1.61-1.55Z"/>
    <path class="cls-1" d="M100.86,11.85c.46-.93,1.1-1.64,1.9-2.14.8-.5,1.69-.75,2.68-.75.84,0,1.58.17,2.22.51.64.34,1.12.79,1.47,1.35v-1.69h3.66v11.96h-3.66v-1.69c-.36.56-.85,1.01-1.49,1.35s-1.38.51-2.22.51c-.97,0-1.86-.25-2.66-.76-.8-.51-1.43-1.23-1.9-2.16s-.7-2.02-.7-3.25.23-2.31.7-3.24ZM108.37,12.94c-.51-.53-1.13-.79-1.85-.79s-1.35.26-1.85.78c-.51.52-.76,1.24-.76,2.15s.25,1.64.76,2.17,1.13.8,1.85.8,1.35-.26,1.85-.79c.51-.53.76-1.25.76-2.16s-.25-1.64-.76-2.16Z"/>
    <path class="cls-3" d="M117.72,19.5h5.23v1.59h-7.18V6.14h1.95v13.35Z"/>
    <path class="cls-3" d="M125.09,7.05c-.26-.26-.39-.57-.39-.94s.13-.69.39-.94c.26-.26.57-.39.94-.39s.66.13.91.39c.25.26.37.57.37.94s-.13.69-.37.94c-.25.26-.55.39-.91.39s-.69-.13-.94-.39ZM126.98,9.34v11.74h-1.95v-11.74h1.95Z"/>
    <path class="cls-3" d="M132.04,20.82c-.71-.31-1.28-.74-1.69-1.29-.41-.55-.64-1.18-.69-1.9h2.01c.06.59.33,1.06.83,1.44.49.37,1.14.56,1.94.56.74,0,1.33-.16,1.76-.49.43-.33.64-.74.64-1.24s-.23-.9-.69-1.15c-.46-.25-1.16-.5-2.12-.74-.87-.23-1.58-.46-2.13-.7-.55-.24-1.02-.59-1.41-1.05-.39-.46-.59-1.07-.59-1.83,0-.6.18-1.15.54-1.65.36-.5.86-.9,1.52-1.19.66-.29,1.41-.44,2.25-.44,1.3,0,2.35.33,3.15.99.8.66,1.23,1.56,1.29,2.7h-1.95c-.04-.61-.29-1.11-.74-1.48-.45-.37-1.05-.56-1.81-.56-.7,0-1.26.15-1.67.45-.41.3-.62.69-.62,1.18,0,.39.13.7.38.95.25.25.56.45.94.6.38.15.9.32,1.58.5.84.23,1.53.45,2.06.68.53.22.98.55,1.36,1,.38.44.57,1.02.59,1.74,0,.64-.18,1.22-.54,1.74-.36.51-.86.92-1.51,1.21-.65.29-1.4.44-2.24.44-.9,0-1.71-.15-2.42-.46Z"/>
    <path class="cls-3" d="M143.87,10.95v6.92c0,.57.12.98.36,1.21s.66.35,1.26.35h1.44v1.65h-1.76c-1.09,0-1.9-.25-2.44-.75-.54-.5-.81-1.32-.81-2.46v-6.92h-1.52v-1.61h1.52v-2.96h1.95v2.96h3.06v1.61h-3.06Z"/>
    <path class="cls-3" d="M149.29,12.01c.49-.91,1.15-1.61,2-2.11.85-.5,1.8-.75,2.84-.75s1.92.22,2.68.66c.76.44,1.32,1,1.69,1.67v-2.14h1.97v11.74h-1.97v-2.19c-.39.69-.96,1.25-1.73,1.7-.76.45-1.65.67-2.67.67s-1.99-.26-2.83-.77c-.84-.51-1.51-1.24-1.99-2.16-.49-.93-.73-1.99-.73-3.17s.24-2.25.73-3.16ZM157.97,12.87c-.36-.66-.84-1.16-1.45-1.51-.61-.35-1.28-.52-2-.52s-1.39.17-1.99.51c-.6.34-1.08.84-1.44,1.5-.36.66-.54,1.43-.54,2.31s.18,1.68.54,2.35c.36.66.84,1.17,1.44,1.52.6.35,1.26.52,1.99.52s1.4-.18,2-.52c.61-.35,1.09-.86,1.45-1.52.36-.66.54-1.44.54-2.33s-.18-1.66-.54-2.31Z"/>
  </g>
  <g>
    <path class="cls-2" d="M14.87,15.03H6.32V0C2.83,0,0,2.83,0,6.32v14.95h21.11c0-3.45-2.79-6.24-6.24-6.24Z"/>
    <path class="cls-2" d="M7.47,29.48c3.4,0,6.16-2.76,6.16-6.16h-6.16v6.16Z"/>
    <path class="cls-2" d="M14.95,12.98c3.4,0,6.16-2.76,6.16-6.16h-7.47c-3.4,0-6.16,2.76-6.16,6.16h7.47Z"/>
  </g>
</svg>