<svg id="Layer_1" data-name="Layer 1" xmlns="http://www.w3.org/2000/svg" viewBox="0 0 297.5 68.5"><defs><style>.cls-1{fill:#d43396}</style></defs><path d="M209.26 12.9c3.21-.54 7.42-1 12.78-1 6.58 0 11.4 1.53 14.47 4.29 2.83 2.45 4.52 6.2 4.52 10.79s-1.38 8.34-3.98 11.02c-3.52 3.75-9.26 5.66-15.77 5.66-1.99 0-3.83-.08-5.36-.46v20.67h-6.66V12.9zm6.66 24.87c1.45.38 3.29.54 5.51.54 8.04 0 12.94-3.9 12.94-11.02s-4.82-10.1-12.17-10.1c-2.91 0-5.13.23-6.28.54v20.05zm40.1-21.35c.08 2.3-1.61 4.13-4.29 4.13-2.37 0-4.06-1.84-4.06-4.13s1.76-4.21 4.21-4.21 4.13 1.84 4.13 4.21zm-7.5 47.45V26.83h6.74v37.04h-6.74zm24.57-20.05h.15c.92-1.3 2.22-2.91 3.29-4.21l10.87-12.78h8.11L281.2 42.06l16.3 21.81h-8.19l-12.78-17.76-3.44 3.83v13.93h-6.66V9.53h6.66v34.29z"/><path class="cls-1" d="M91.6 65.05c-4.39 0-8.47-.52-12.25-1.57-3.78-1.04-6.99-2.51-9.64-4.4l3.52-9.26c1.73 1.12 3.56 2.08 5.47 2.87 1.91.79 3.95 1.4 6.12 1.84 2.17.43 4.43.65 6.77.65 3.67 0 6.29-.55 7.84-1.65 1.56-1.1 2.33-2.54 2.33-4.32 0-1.58-.51-2.78-1.53-3.6s-2.96-1.5-5.82-2.07l-8.88-1.84c-4.95-1.02-8.66-2.77-11.13-5.24-2.48-2.47-3.71-5.75-3.71-9.83 0-3.42.93-6.42 2.79-8.99 1.86-2.58 4.46-4.57 7.81-5.97 3.34-1.4 7.23-2.1 11.67-2.1 3.83 0 7.4.54 10.71 1.61 3.32 1.07 6.05 2.55 8.19 4.44l-3.44 8.88c-2.14-1.73-4.5-3.01-7.08-3.83-2.58-.82-5.45-1.22-8.61-1.22s-5.85.56-7.62 1.68c-1.76 1.12-2.64 2.73-2.64 4.82 0 1.53.54 2.78 1.61 3.75 1.07.97 2.96 1.71 5.66 2.22l8.95 1.76c5 1.02 8.74 2.73 11.21 5.13 2.47 2.4 3.71 5.59 3.71 9.57 0 3.32-.92 6.24-2.75 8.76-1.84 2.53-4.4 4.48-7.69 5.86s-7.16 2.07-11.59 2.07zm45.08 0c-3.37 0-6.34-.79-8.92-2.37s-4.57-3.9-5.97-6.96c-1.4-3.06-2.1-6.68-2.1-10.87s.71-7.78 2.14-10.79c1.43-3.01 3.42-5.32 5.97-6.93 2.55-1.61 5.51-2.41 8.88-2.41 3.11 0 5.91.77 8.38 2.3 2.47 1.53 4.12 3.55 4.94 6.05h-.92l.92-7.5h11.1a79.724 79.724 0 00-.61 10.02v28.7h-11.48l-.08-7.27h.92c-.82 2.45-2.45 4.4-4.9 5.85s-5.2 2.18-8.27 2.18zm3.52-8.65c2.65 0 4.79-.93 6.43-2.79 1.63-1.86 2.45-4.78 2.45-8.76s-.82-6.82-2.45-8.69c-1.63-1.86-3.78-2.79-6.43-2.79s-4.8.93-6.43 2.79c-1.63 1.86-2.45 4.76-2.45 8.69s.8 6.9 2.41 8.76c1.61 1.86 3.76 2.79 6.47 2.79zm44.08 8.65c-3.42 0-6.57-.38-9.45-1.15s-5.29-1.81-7.23-3.14l2.91-7.65c1.99 1.28 4.2 2.26 6.62 2.95 2.42.69 4.83 1.03 7.23 1.03s3.97-.37 5.01-1.11c1.04-.74 1.57-1.72 1.57-2.95 0-.92-.34-1.67-1.03-2.26-.69-.59-1.75-1.03-3.18-1.34l-7.96-1.45c-3.27-.61-5.77-1.81-7.5-3.6-1.74-1.79-2.6-4.11-2.6-6.96 0-2.55.68-4.77 2.03-6.66s3.3-3.37 5.86-4.44c2.55-1.07 5.54-1.61 8.95-1.61 2.91 0 5.66.36 8.27 1.07 2.6.71 4.82 1.84 6.66 3.37l-3.14 7.35c-1.53-1.17-3.36-2.11-5.47-2.79-2.12-.69-4.09-1.03-5.93-1.03-2.4 0-4.15.38-5.24 1.15-1.1.76-1.65 1.76-1.65 2.98 0 .92.32 1.68.96 2.3.64.61 1.65 1.07 3.02 1.38l7.88 1.38c3.42.61 6.02 1.77 7.81 3.48s2.68 4.04 2.68 7c0 2.71-.73 5-2.18 6.89s-3.46 3.33-6.01 4.32c-2.55 1-5.51 1.49-8.88 1.49z"/><path d="M37.29 54.91c-.08.08-.15.17-.23.25l4.72 6.57c.07-.06.14-.13.2-.19-1.6-2.35-3.33-4.83-4.69-6.63z" fill="red"/><circle class="cls-1" cx="25.5" cy="43" r="11"/><path class="cls-1" d="M25.5 60.5C15.85 60.5 8 52.65 8 43s7.85-17.5 17.5-17.5c5.36 0 10.16 2.43 13.38 6.24l4.91-6.48c-4.64-4.78-11.12-7.76-18.29-7.76C11.44 17.5 0 28.94 0 43s11.44 25.5 25.5 25.5c6.66 0 12.73-2.57 17.27-6.76l-4.72-6.57c-3.18 3.29-7.63 5.34-12.56 5.34z"/><path class="cls-1" d="M36 0c-4.68 0-9.07 1.27-12.84 3.48l3.92 6.99C29.7 8.91 32.74 8 36 8c9.65 0 17.5 7.85 17.5 17.5S45.65 43 36 43c-3.12 0-6.05-.83-8.59-2.27l-3.04 7.45A25.29 25.29 0 0036 51c14.06 0 25.5-11.44 25.5-25.5S50.06 0 36 0z"/></svg>