<svg width="298" height="69" viewBox="0 0 298 69" fill="none" xmlns="http://www.w3.org/2000/svg">
<g clip-path="url(#clip0_2015_59)">
<path d="M209.26 12.9C212.47 12.36 216.68 11.9 222.04 11.9C228.62 11.9 233.44 13.43 236.51 16.19C239.34 18.64 241.03 22.39 241.03 26.98C241.03 31.57 239.65 35.32 237.05 38C233.53 41.75 227.79 43.66 221.28 43.66C219.29 43.66 217.45 43.58 215.92 43.2V63.87H209.26V12.9ZM215.92 37.77C217.37 38.15 219.21 38.31 221.43 38.31C229.47 38.31 234.37 34.41 234.37 27.29C234.37 20.17 229.55 17.19 222.2 17.19C219.29 17.19 217.07 17.42 215.92 17.73V37.78V37.77Z" fill="black"/>
<path d="M256.02 16.42C256.1 18.72 254.41 20.55 251.73 20.55C249.36 20.55 247.67 18.71 247.67 16.42C247.67 14.13 249.43 12.21 251.88 12.21C254.33 12.21 256.01 14.05 256.01 16.42H256.02ZM248.52 63.87V26.83H255.26V63.87H248.52Z" fill="black"/>
<path d="M273.09 43.82H273.24C274.16 42.52 275.46 40.91 276.53 39.61L287.4 26.83H295.51L281.2 42.06L297.5 63.87H289.31L276.53 46.11L273.09 49.94V63.87H266.43V9.53003H273.09V43.82Z" fill="black"/>
<path d="M91.6 65.05C87.21 65.05 83.13 64.53 79.35 63.48C75.57 62.44 72.36 60.97 69.71 59.08L73.23 49.82C74.96 50.94 76.79 51.9 78.7 52.69C80.61 53.48 82.65 54.09 84.82 54.53C86.99 54.96 89.25 55.18 91.59 55.18C95.26 55.18 97.88 54.63 99.43 53.53C100.99 52.43 101.76 50.99 101.76 49.21C101.76 47.63 101.25 46.43 100.23 45.61C99.21 44.79 97.27 44.11 94.41 43.54L85.53 41.7C80.58 40.68 76.87 38.93 74.4 36.46C71.92 33.99 70.69 30.71 70.69 26.63C70.69 23.21 71.62 20.21 73.48 17.64C75.34 15.06 77.94 13.07 81.29 11.67C84.63 10.27 88.52 9.57001 92.96 9.57001C96.79 9.57001 100.36 10.11 103.67 11.18C106.99 12.25 109.72 13.73 111.86 15.62L108.42 24.5C106.28 22.77 103.92 21.49 101.34 20.67C98.76 19.85 95.89 19.45 92.73 19.45C89.57 19.45 86.88 20.01 85.11 21.13C83.35 22.25 82.47 23.86 82.47 25.95C82.47 27.48 83.01 28.73 84.08 29.7C85.15 30.67 87.04 31.41 89.74 31.92L98.69 33.68C103.69 34.7 107.43 36.41 109.9 38.81C112.37 41.21 113.61 44.4 113.61 48.38C113.61 51.7 112.69 54.62 110.86 57.14C109.02 59.67 106.46 61.62 103.17 63C99.88 64.38 96.01 65.07 91.58 65.07L91.6 65.05Z" fill="#A4EF4A"/>
<path d="M136.68 65.05C133.31 65.05 130.34 64.26 127.76 62.68C125.18 61.1 123.19 58.78 121.79 55.72C120.39 52.66 119.69 49.04 119.69 44.85C119.69 40.66 120.4 37.07 121.83 34.06C123.26 31.05 125.25 28.74 127.8 27.13C130.35 25.52 133.31 24.72 136.68 24.72C139.79 24.72 142.59 25.49 145.06 27.02C147.53 28.55 149.18 30.57 150 33.07H149.08L150 25.57H161.1C160.9 27.2 160.74 28.86 160.64 30.54C160.54 32.22 160.49 33.91 160.49 35.59V64.29H149.01L148.93 57.02H149.85C149.03 59.47 147.4 61.42 144.95 62.87C142.5 64.32 139.75 65.05 136.68 65.05ZM140.2 56.4C142.85 56.4 144.99 55.47 146.63 53.61C148.26 51.75 149.08 48.83 149.08 44.85C149.08 40.87 148.26 38.03 146.63 36.16C145 34.3 142.85 33.37 140.2 33.37C137.55 33.37 135.4 34.3 133.77 36.16C132.14 38.02 131.32 40.92 131.32 44.85C131.32 48.78 132.12 51.75 133.73 53.61C135.34 55.47 137.49 56.4 140.2 56.4Z" fill="#A4EF4A"/>
<path d="M184.28 65.05C180.86 65.05 177.71 64.67 174.83 63.9C171.95 63.13 169.54 62.09 167.6 60.76L170.51 53.11C172.5 54.39 174.71 55.37 177.13 56.06C179.55 56.75 181.96 57.09 184.36 57.09C186.76 57.09 188.33 56.72 189.37 55.98C190.41 55.24 190.94 54.26 190.94 53.03C190.94 52.11 190.6 51.36 189.91 50.77C189.22 50.18 188.16 49.74 186.73 49.43L178.77 47.98C175.5 47.37 173 46.17 171.27 44.38C169.53 42.59 168.67 40.27 168.67 37.42C168.67 34.87 169.35 32.65 170.7 30.76C172.05 28.87 174 27.39 176.56 26.32C179.11 25.25 182.1 24.71 185.51 24.71C188.42 24.71 191.17 25.07 193.78 25.78C196.38 26.49 198.6 27.62 200.44 29.15L197.3 36.5C195.77 35.33 193.94 34.39 191.83 33.71C189.71 33.02 187.74 32.68 185.9 32.68C183.5 32.68 181.75 33.06 180.66 33.83C179.56 34.59 179.01 35.59 179.01 36.81C179.01 37.73 179.33 38.49 179.97 39.11C180.61 39.72 181.62 40.18 182.99 40.49L190.87 41.87C194.29 42.48 196.89 43.64 198.68 45.35C200.47 47.06 201.36 49.39 201.36 52.35C201.36 55.06 200.63 57.35 199.18 59.24C197.73 61.13 195.72 62.57 193.17 63.56C190.62 64.56 187.66 65.05 184.29 65.05H184.28Z" fill="#A4EF4A"/>
<path d="M37.29 54.91C37.21 54.99 37.14 55.08 37.06 55.16L41.78 61.73C41.85 61.67 41.92 61.6 41.98 61.54C40.38 59.19 38.65 56.71 37.29 54.91Z" fill="#FF0000"/>
<path d="M25.5 54C31.5751 54 36.5 49.0751 36.5 43C36.5 36.9249 31.5751 32 25.5 32C19.4249 32 14.5 36.9249 14.5 43C14.5 49.0751 19.4249 54 25.5 54Z" fill="#A4EF4A"/>
<path d="M25.5 60.5C15.85 60.5 8 52.65 8 43C8 33.35 15.85 25.5 25.5 25.5C30.86 25.5 35.66 27.93 38.88 31.74L43.79 25.26C39.15 20.48 32.67 17.5 25.5 17.5C11.44 17.5 0 28.94 0 43C0 57.06 11.44 68.5 25.5 68.5C32.16 68.5 38.23 65.93 42.77 61.74L38.05 55.17C34.87 58.46 30.42 60.51 25.49 60.51L25.5 60.5Z" fill="#A4EF4A"/>
<path d="M36 0C31.32 0 26.93 1.27 23.16 3.48L27.08 10.47C29.7 8.91 32.74 8 36 8C45.65 8 53.5 15.85 53.5 25.5C53.5 35.15 45.65 43 36 43C32.88 43 29.95 42.17 27.41 40.73L24.37 48.18C27.86 49.98 31.81 51 36 51C50.06 51 61.5 39.56 61.5 25.5C61.5 11.44 50.06 0 36 0Z" fill="#A4EF4A"/>
</g>
<defs>
<clipPath id="clip0_2015_59">
<rect width="297.5" height="68.5" fill="white"/>
</clipPath>
</defs>
</svg>
