<svg width="28" height="28" viewBox="0 0 28 28" fill="none" xmlns="http://www.w3.org/2000/svg">
<path d="M1.99587 19.0233C2.19838 18.8026 2.335 18.6648 2.45943 18.516C3.1743 17.6575 3.88306 16.7928 4.59915 15.9355C6.23138 13.9819 8.73829 13.9733 10.3803 15.9148C10.7328 16.3319 11.0793 16.755 11.5343 17.3038C11.66 17.1148 11.7429 16.9538 11.8588 16.8209C12.8713 15.655 13.9326 14.5282 14.8988 13.3246C16.5201 11.305 19.3258 11.3733 20.9093 13.305C22.3902 15.1111 23.9725 16.8343 25.512 18.5929C25.6437 18.7441 25.7828 18.8892 26.0048 19.1331C26.0256 18.866 26.0487 18.705 26.0487 18.5429C26.0512 16.3075 26.05 14.0721 26.0512 11.8368C26.0512 11.6538 26.0439 11.4697 26.0658 11.2892C26.1244 10.8087 26.4904 10.4648 26.9527 10.4392C27.426 10.4124 27.82 10.6965 27.9372 11.1721C27.9799 11.3465 27.9896 11.5343 27.9896 11.7148C27.9921 15.0477 28.0116 18.3794 27.986 21.7124C27.9628 24.7599 26.0231 27.1855 23.1222 27.8319C22.6306 27.9416 22.1158 27.988 21.6107 27.9892C16.5286 28.0002 11.4477 28.005 6.36557 27.9929C3.28653 27.9855 0.832081 26.0587 0.170893 23.1404C0.0635409 22.6685 0.0123049 22.1746 0.011085 21.6916C0.000105833 16.5709 -0.00599369 11.4502 0.00864517 6.32943C0.0159646 3.26358 1.96537 0.808697 4.89193 0.161136C5.38355 0.052599 5.89835 0.0111356 6.40339 0.00869657C9.67639 -0.00471807 12.9494 0.000159979 16.2212 0.00503803C16.4615 0.00503803 16.714 0.0196722 16.9409 0.0904039C17.3764 0.22577 17.6058 0.62577 17.5655 1.08918C17.5265 1.53431 17.2057 1.87943 16.7506 1.93919C16.5506 1.96601 16.3444 1.95748 16.1419 1.95748C12.8896 1.9587 9.63736 1.9526 6.38509 1.96114C4.443 1.96601 2.87664 2.99894 2.25815 4.71358C2.08858 5.18309 1.97757 5.70138 1.97513 6.19772C1.95317 10.3636 1.96171 14.5294 1.96293 18.6941C1.96293 18.7685 1.97757 18.8404 1.99587 19.0233ZM13.9351 26.0392C16.4957 26.0392 19.0562 26.0502 21.6168 26.0355C23.7687 26.0233 25.4364 24.6636 25.8767 22.6453C25.967 22.2319 25.8621 21.9648 25.5986 21.6672C23.4979 19.2941 21.4107 16.9087 19.3185 14.5282C18.378 13.4575 17.3215 13.4709 16.3749 14.5563C15.0269 16.1026 13.6777 17.6502 12.3236 19.1916C11.6648 19.9416 11.111 19.9258 10.4645 19.1526C9.94355 18.5294 9.43241 17.8977 8.90785 17.2758C7.98561 16.1807 6.89013 16.1807 5.99106 17.2733C4.82849 18.6843 3.70496 20.1294 2.49115 21.4953C2.00197 22.0453 1.97269 22.549 2.20447 23.1563C2.28377 23.3648 2.3655 23.5746 2.47529 23.7685C3.33045 25.2843 4.64673 26.0282 6.37411 26.0355C8.89443 26.0465 11.4148 26.0392 13.9351 26.0392Z" fill="white"/>
<path d="M24.1054 5.85993C24.1054 6.72334 24.1067 7.49407 24.1054 8.26481C24.1054 8.46846 24.1176 8.67334 24.0896 8.87334C24.0091 9.44895 23.5906 9.79164 23.0405 9.75383C22.5245 9.71847 22.1695 9.35017 22.156 8.77822C22.1365 8.00627 22.1499 7.23432 22.1487 6.46115C22.1487 6.30017 22.1487 6.1392 22.1487 5.91359C21.9462 5.89407 21.7742 5.86481 21.6022 5.86359C20.8495 5.85749 20.0981 5.86968 19.3454 5.85749C18.6549 5.84773 18.2548 5.48798 18.2511 4.90017C18.2475 4.31115 18.6439 3.927 19.3234 3.90871C20.0139 3.88919 20.7056 3.90383 21.3973 3.90261C21.6181 3.90261 21.8401 3.90261 22.1487 3.90261C22.1487 3.41602 22.1487 2.97578 22.1487 2.53676C22.1487 2.06968 22.1658 1.60139 22.1451 1.13432C22.1133 0.407486 22.5769 0.0440711 23.0905 0.0123638C23.6651 -0.0230021 24.0884 0.44773 24.1018 1.14163C24.1164 1.89285 24.1042 2.64529 24.1067 3.39773C24.1067 3.53676 24.1213 3.67578 24.1335 3.90261C24.408 3.90261 24.6629 3.90261 24.9191 3.90261C25.5901 3.90261 26.261 3.88676 26.932 3.90871C27.5797 3.92944 28.0201 4.36724 28.0006 4.92212C27.9811 5.46724 27.5651 5.84529 26.9307 5.85505C26.0195 5.86968 25.1082 5.85993 24.1054 5.85993Z" fill="white"/>
<path d="M7.50507 11.0719C5.5398 11.0743 3.93318 9.48527 3.91122 7.51698C3.88927 5.55722 5.56176 3.88405 7.52214 3.90722C9.49107 3.93039 11.0806 5.53771 11.0769 7.50234C11.0733 9.46698 9.47033 11.0694 7.50507 11.0719ZM9.12144 7.4621C9.10436 6.57429 8.3285 5.83405 7.45261 5.87064C6.57428 5.90722 5.87283 6.63039 5.87405 7.49625C5.87527 8.38527 6.62551 9.12429 7.51727 9.11454C8.41024 9.106 9.13852 8.35478 9.12144 7.4621Z" fill="white"/>
</svg>
