<svg width="28" height="28" viewBox="0 0 28 28" fill="none" xmlns="http://www.w3.org/2000/svg">
<path d="M5.45305 5.4106C5.45305 4.4578 5.44409 3.58312 5.45818 2.70972C5.4633 2.39212 5.48635 2.06683 5.55935 1.75948C5.78858 0.807954 6.64021 0.0984747 7.61863 0.0177939C7.85171 -0.00141585 8.08735 0.00114545 8.32298 0.00114545C13.9361 -0.000135201 19.5491 -0.00141585 25.1635 0.00370674C25.5246 0.00370674 25.8973 -0.00141585 26.2444 0.0818263C27.2202 0.316185 27.9207 1.19471 27.9873 2.21026C28.0014 2.42285 27.9989 2.63672 27.9989 2.85059C27.9989 8.46367 28.0014 14.0767 27.995 19.6911C27.995 20.0715 27.9912 20.4685 27.8913 20.8309C27.6057 21.8708 26.7041 22.5111 25.5323 22.5418C24.7857 22.561 24.0378 22.5457 23.2912 22.547C23.0799 22.547 22.8699 22.547 22.6163 22.547C22.5945 22.7455 22.5625 22.9081 22.5612 23.0695C22.5561 23.8596 22.5535 24.6485 22.5587 25.4387C22.5715 27.0151 21.3805 28.0076 19.9769 28C14.1717 27.9705 8.36653 27.9692 2.56135 28C1.11038 28.0076 -0.00891106 26.8999 5.3471e-05 25.4246C0.0333503 19.6194 0.030789 13.8142 0.00133412 8.00904C-0.00506912 6.64771 0.963101 5.42341 2.57672 5.44134C3.30284 5.44902 4.02769 5.44518 4.75382 5.44134C4.96128 5.43878 5.16875 5.42213 5.45305 5.4106ZM11.2531 25.9317C14.0488 25.9317 16.8431 25.9317 19.6388 25.9317C20.4994 25.9317 20.4994 25.9291 20.5032 25.0852C20.5032 25.0212 20.5032 24.9571 20.5032 24.8931C20.5032 19.4311 20.5032 13.9679 20.5032 8.50593C20.5032 8.37787 20.5071 8.2498 20.5019 8.12173C20.4815 7.59155 20.3995 7.51471 19.8475 7.49806C19.7617 7.4955 19.6772 7.49806 19.5914 7.49806C14.0436 7.49806 8.49587 7.49806 2.94811 7.49806C2.79827 7.49806 2.64971 7.49678 2.49988 7.50318C2.21942 7.51471 2.06702 7.6543 2.06958 7.94372C2.07086 8.07179 2.06702 8.19986 2.06702 8.32792C2.06702 13.9179 2.06702 19.5093 2.06702 25.0993C2.06702 25.2056 2.06318 25.3132 2.0683 25.4195C2.09391 25.8651 2.1413 25.9099 2.61001 25.9317C2.75857 25.9381 2.9084 25.933 3.05824 25.933C5.78986 25.9317 8.52149 25.9317 11.2531 25.9317ZM7.51105 5.44134C7.84786 5.44134 8.10143 5.44134 8.35372 5.44134C12.0881 5.44134 15.8225 5.44134 19.5568 5.44134C19.7707 5.44134 19.9846 5.43365 20.1972 5.44902C21.5393 5.54251 22.446 6.44281 22.5471 7.78492C22.5638 7.99751 22.5561 8.21138 22.5561 8.42525C22.5561 12.1814 22.5561 15.9375 22.5561 19.6924C22.5561 19.9396 22.5561 20.1867 22.5561 20.4902C23.5192 20.4902 24.39 20.4954 25.2608 20.489C25.8948 20.4838 25.9332 20.4364 25.9421 19.782C25.9434 19.6962 25.9421 19.6117 25.9421 19.5259C25.9421 14.0204 25.9421 8.51489 25.9421 3.00811C25.9421 2.85827 25.9357 2.70844 25.9421 2.55988C25.9588 2.21411 25.8102 2.03866 25.4529 2.0553C25.3249 2.06171 25.1968 2.0553 25.0687 2.0553C19.5197 2.0553 13.9719 2.0553 8.42288 2.0553C8.27304 2.0553 8.12448 2.06043 7.97465 2.05659C7.64936 2.04762 7.50977 2.22051 7.50849 2.52786C7.51105 3.46402 7.51105 4.40017 7.51105 5.44134Z" fill="white"/>
</svg>
