<svg width="24" height="28" viewBox="0 0 24 28" fill="none" xmlns="http://www.w3.org/2000/svg">
<path d="M15.2319 3.63844C15.2319 3.35075 15.2319 3.15166 15.2319 2.95367C15.2319 2.22405 15.2308 1.49552 15.2341 0.765906C15.2352 0.458525 15.3118 0.183961 15.629 0.0494133C15.9276 -0.0774769 16.1584 0.0581644 16.3706 0.250688C18.5278 2.21311 20.6882 4.17335 22.8399 6.14233C23.2665 6.53285 23.2654 6.86211 22.8377 7.25262C20.6838 9.21942 18.5201 11.1753 16.3641 13.1388C16.142 13.3412 15.9014 13.4385 15.617 13.3269C15.3227 13.211 15.2385 12.9485 15.2352 12.6597C15.2286 12.1127 15.2319 11.5658 15.2319 11.0189C15.2319 10.8231 15.2319 10.6262 15.2319 10.356C14.9672 10.356 14.755 10.356 14.5439 10.356C12.1187 10.356 9.6925 10.426 7.27064 10.3396C3.59958 10.2094 1.98719 12.5492 1.31555 14.9689C1.27617 15.1089 1.24882 15.2533 1.20179 15.3911C1.10006 15.6875 0.877998 15.8374 0.574993 15.809C0.296053 15.7838 0.10353 15.6088 0.0499301 15.3277C0.0160198 15.1504 0.0149259 14.9656 0.013832 14.7851C0.0116442 13.2723 0.0553995 11.7572 0.00398708 10.2455C-0.118528 6.62145 2.60414 4.37134 5.17477 3.83534C5.7939 3.70626 6.43929 3.65266 7.07265 3.64719C9.56998 3.62641 12.0673 3.63844 14.5657 3.63844C14.7626 3.63844 14.9595 3.63844 15.2319 3.63844ZM21.6388 6.69365C19.9323 5.14362 18.2554 3.61984 16.4964 2.02168C16.4822 2.30937 16.468 2.48221 16.4669 2.65504C16.4625 3.14729 16.4789 3.63953 16.4592 4.13069C16.4374 4.66122 16.2492 4.83515 15.7132 4.87124C15.5677 4.88109 15.4222 4.87453 15.2757 4.87453C13.5998 4.87453 11.924 4.87124 10.2482 4.87562C8.90053 4.87999 7.54958 4.84499 6.2052 4.91719C4.68471 4.99923 3.42127 5.67415 2.39084 6.80194C1.01364 8.30931 1.21929 10.1372 1.32868 11.9826C1.41509 11.9552 1.4326 11.8808 1.47307 11.824C2.80542 9.96107 4.63658 9.10894 6.90857 9.11879C9.76907 9.13191 12.6285 9.11988 15.489 9.12316C16.3138 9.12426 16.4603 9.28177 16.4658 10.1306C16.468 10.4993 16.4658 10.8668 16.4658 11.2354C16.5107 11.2475 16.5555 11.2595 16.6004 11.2715C18.2642 9.7598 19.929 8.24696 21.6388 6.69365Z" fill="white"/>
<path d="M8.5401 17.6406C8.80044 17.6406 8.99624 17.6406 9.19314 17.6406C11.4345 17.6406 13.6781 17.5728 15.9161 17.6559C19.5905 17.7926 21.1985 15.4331 21.8658 13.0266C21.9095 12.8691 21.9358 12.7039 21.997 12.554C22.0955 12.3112 22.2967 12.1777 22.5527 12.1843C22.8306 12.192 23.0439 12.3386 23.1128 12.6197C23.1554 12.7936 23.1642 12.9796 23.1642 13.1601C23.1675 14.6904 23.1237 16.2229 23.1751 17.7511C23.2998 21.4856 20.4382 23.6887 17.9573 24.1711C17.3535 24.2881 16.7289 24.3439 16.113 24.3505C13.817 24.3713 11.5209 24.3592 9.22596 24.3592C9.02687 24.3592 8.82779 24.3592 8.58713 24.3592C8.56854 24.5288 8.54228 24.6666 8.54119 24.8044C8.53681 25.5876 8.53463 26.372 8.54119 27.1552C8.54447 27.4801 8.51603 27.782 8.17911 27.9417C7.8597 28.0937 7.62014 27.9231 7.38933 27.7306C5.05171 25.7835 2.71189 23.8385 0.379739 21.886C-0.11032 21.4757 -0.104851 21.1279 0.38302 20.7199C2.71736 18.7684 5.05608 16.8235 7.39152 14.8731C7.63217 14.6729 7.88595 14.5438 8.19005 14.6784C8.50509 14.8173 8.54447 15.105 8.54119 15.4145C8.53463 16.1212 8.5401 16.83 8.5401 17.6406ZM21.973 16.0698C21.927 16.0556 21.8811 16.0413 21.8351 16.0271C21.7367 16.1529 21.6382 16.2787 21.5398 16.4034C20.3704 17.8802 18.8707 18.7903 16.9695 18.8286C14.0204 18.8887 11.0691 18.869 8.11895 18.8701C7.53372 18.8701 7.33682 18.6492 7.32698 18.0683C7.31823 17.5892 7.32479 17.109 7.32479 16.5216C5.36128 18.158 3.49621 19.7124 1.58738 21.3029C3.50168 22.8978 5.36784 24.4522 7.29745 26.0591C7.31057 25.8819 7.3226 25.7977 7.3226 25.7134C7.32479 25.1129 7.31604 24.5113 7.32589 23.9107C7.33573 23.3561 7.52935 23.1614 8.08176 23.1275C8.24475 23.1177 8.40992 23.1231 8.57291 23.1231C11.1052 23.1231 13.6365 23.1199 16.1688 23.1242C17.1468 23.1264 18.093 22.993 18.9768 22.5521C20.494 21.7963 21.5868 20.6641 21.8494 18.9445C21.9948 18.0038 21.9391 17.0302 21.973 16.0698Z" fill="white"/>
</svg>
