<svg width="30" height="30" viewBox="0 0 30 30" fill="none" xmlns="http://www.w3.org/2000/svg">
<path d="M1.28149 26.9777C1.84303 27.5439 2.44325 28.1476 3.07512 28.7842C3.18415 28.681 3.34241 28.5404 3.49129 28.3915C4.50064 27.3845 5.50883 26.3751 6.51701 25.3669C6.60024 25.2837 6.68113 25.1993 6.76671 25.1184C7.13716 24.7714 7.47596 24.7362 7.73152 25.0152C7.96481 25.2708 7.93081 25.6143 7.60374 25.9437C6.40681 27.15 5.21106 28.3575 3.99655 29.5474C3.37758 30.1535 2.64489 30.1464 2.01653 29.5509C1.47844 29.0398 0.953249 28.5146 0.442124 27.9765C-0.153407 27.3505 -0.142856 26.6307 0.446813 25.9941C0.552321 25.8792 0.667207 25.7725 0.777403 25.6612C6.09615 20.3424 11.4137 15.0249 16.7325 9.70727C16.8708 9.56894 17.0033 9.42358 17.1545 9.30166C17.682 8.87963 18.3737 8.86204 18.8731 9.31807C19.4933 9.88429 20.0876 10.481 20.6562 11.0976C21.1368 11.6181 21.1216 12.3133 20.6761 12.8619C20.5776 12.9827 20.4628 13.0894 20.3514 13.1996C17.4921 16.0588 14.6329 18.9193 11.7725 21.7773C11.6482 21.9016 11.5263 22.0306 11.3844 22.1325C11.1265 22.3178 10.8627 22.2908 10.6424 22.0681C10.422 21.8465 10.3927 21.5839 10.5837 21.326C10.6881 21.1865 10.8182 21.0657 10.9425 20.9415C12.1992 19.6836 13.4547 18.4257 14.7149 17.1713C14.8521 17.0342 15.0127 16.9205 15.1159 16.8361C14.4453 16.1714 13.8322 15.5629 13.2613 14.9967C9.30006 18.9591 5.27085 22.9883 1.28149 26.9777ZM14.2906 13.9885C14.8662 14.5594 15.4711 15.1585 16.0127 15.6954C17.2448 14.4856 18.5214 13.2312 19.7605 12.0155C19.1697 11.4259 18.5695 10.8257 17.9845 10.2407C16.7653 11.4775 15.5098 12.7518 14.2906 13.9885Z" fill="white"/>
<path d="M25.0066 7.80849C24.8706 7.84718 24.7393 7.88352 24.6091 7.92103C24.0289 8.0875 23.4521 8.27272 22.8659 8.41692C21.982 8.63497 21.3865 8.03709 21.6104 7.15786C21.7593 6.57288 21.9715 6.00314 22.1121 5.41582C22.1719 5.16377 22.1719 4.87304 22.1121 4.61982C21.9785 4.05125 21.7792 3.4991 21.6268 2.93404C21.3724 1.99034 21.975 1.38074 22.9222 1.62692C23.4697 1.76877 24.0136 1.92586 24.5494 2.10405C24.8612 2.20839 25.1449 2.21777 25.4591 2.11226C25.9948 1.93172 26.5388 1.77581 27.0851 1.63278C28.0628 1.37605 28.6536 1.98565 28.3863 2.9657C28.1976 3.66087 27.8517 4.35253 27.8494 5.04771C27.8471 5.72179 28.1999 6.39469 28.3863 7.07111C28.6559 8.04881 28.0616 8.65958 27.0851 8.40285C26.52 8.25397 25.962 8.07695 25.4005 7.914C25.2715 7.87649 25.1402 7.84366 25.0066 7.80849ZM22.8319 2.84143C23.0101 3.44869 23.1344 3.93754 23.2973 4.41349C23.4357 4.81794 23.4462 5.20011 23.3044 5.60807C23.1344 6.09341 23.0101 6.59515 22.8413 7.17427C23.1461 7.09925 23.3606 7.07814 23.5482 6.99491C24.5306 6.56233 25.5024 6.55881 26.486 6.99257C26.6818 7.07932 26.9092 7.08987 27.1788 7.14848C27.0018 6.52716 26.8248 6.00783 26.7123 5.4756C26.6513 5.18487 26.649 4.86014 26.7099 4.56941C26.8236 4.02429 27.003 3.49323 27.1824 2.8555C26.6126 3.01376 26.1249 3.1263 25.6537 3.28574C25.2293 3.42993 24.8319 3.44986 24.4016 3.29277C23.9327 3.12161 23.4392 3.01259 22.8319 2.84143Z" fill="white"/>
<path d="M16.829 1.06172C16.7399 1.38293 16.6602 1.83075 16.4937 2.24341C16.1713 3.04292 16.1361 3.81664 16.4867 4.61615C16.6262 4.93502 16.7035 5.28437 16.7786 5.62668C16.965 6.47778 16.3694 7.06393 15.5312 6.84822C14.965 6.70286 14.4047 6.5317 13.849 6.34765C13.5184 6.23863 13.2101 6.24683 12.883 6.35468C12.3461 6.53053 11.8021 6.68879 11.2558 6.83533C10.3543 7.07565 9.74591 6.47191 9.97803 5.55986C10.1222 4.99364 10.3239 4.44031 10.4528 3.87057C10.5138 3.60094 10.5173 3.29496 10.4563 3.02533C10.3285 2.45559 10.1269 1.90344 9.98155 1.33604C9.74005 0.394681 10.3532 -0.197334 11.2934 0.0605734C11.9885 0.251659 12.6814 0.604523 13.3754 0.604523C14.0694 0.604523 14.761 0.250487 15.4562 0.0582288C16.2123 -0.150442 16.8184 0.243453 16.829 1.06172ZM11.1949 5.61965C11.8514 5.43091 12.3953 5.29375 12.9252 5.11673C13.2394 5.01239 13.5254 5.01943 13.8373 5.12024C14.366 5.2914 14.9052 5.43091 15.5195 5.60675C15.4527 5.32188 15.4328 5.10852 15.3519 4.92213C14.9275 3.94208 14.897 2.97024 15.3448 1.98667C15.4351 1.78738 15.4515 1.55526 15.516 1.27508C14.8865 1.45444 14.3507 1.63146 13.8021 1.75104C13.5313 1.80965 13.2253 1.812 12.9545 1.75221C12.3918 1.62912 11.842 1.44741 11.1984 1.26453C11.3684 1.8671 11.4985 2.39229 11.6685 2.90341C11.7916 3.27386 11.7881 3.61852 11.6661 3.98663C11.4997 4.48251 11.3731 4.99246 11.1949 5.61965Z" fill="white"/>
<path d="M24.191 13.1685C24.538 13.267 25.0034 13.3561 25.4336 13.5308C26.1991 13.8414 26.9377 13.8309 27.6973 13.5226C28.0385 13.3842 28.4031 13.2916 28.7641 13.2143C29.607 13.0349 30.1791 13.6457 29.9552 14.4839C29.7946 15.0864 29.593 15.6784 29.4429 16.2845C29.3901 16.4979 29.3878 16.7464 29.4406 16.9586C29.5906 17.5635 29.7899 18.1567 29.9517 18.7593C30.1838 19.6244 29.5894 20.2387 28.7161 20.0265C28.1475 19.8882 27.5848 19.7252 27.0303 19.5377C26.6962 19.4251 26.3937 19.4333 26.0631 19.5447C25.5462 19.7182 25.0198 19.8683 24.4923 20.0078C23.5099 20.2668 22.9108 19.6608 23.1781 18.6854C23.368 17.9902 23.7185 17.2962 23.715 16.6022C23.7127 15.9082 23.3528 15.2177 23.1629 14.5214C22.9612 13.7746 23.3833 13.1603 24.191 13.1685ZM24.3785 18.7956C24.8721 18.6573 25.273 18.5799 25.647 18.4334C26.2601 18.1942 26.8498 18.1907 27.4641 18.4287C27.8521 18.5787 28.2659 18.6596 28.736 18.7909C28.6024 18.3372 28.5215 17.9738 28.389 17.6303C28.1334 16.9645 28.1018 16.3174 28.3796 15.6456C28.5238 15.2974 28.5977 14.9188 28.7301 14.4604C28.2823 14.5812 27.9166 14.6421 27.5836 14.7793C26.8967 15.063 26.2343 15.0618 25.545 14.7805C25.198 14.6386 24.8182 14.5812 24.3844 14.4686C24.5731 15.1286 24.7525 15.6843 24.885 16.2505C24.9401 16.4838 24.9424 16.7511 24.8885 16.9844C24.7549 17.5541 24.5755 18.1098 24.3785 18.7956Z" fill="white"/>
<path d="M9.74958 23.5299C9.7531 23.8616 9.49284 24.1254 9.16812 24.1195C8.85628 24.1137 8.5761 23.8206 8.59017 23.5134C8.60306 23.2251 8.86566 22.9671 9.15639 22.9554C9.48464 22.9425 9.74723 23.1969 9.74958 23.5299Z" fill="white"/>
</svg>
